# xmcd
# 
# Track frame offsets:
#     150
#     23797
#     43621
#     63218
#     89801
#     107515
#     127205
#     142285
#     159985
#     180738
#     195878
#     216559
# 
# Disc length: 3219
# 
# Revision: 13
# Processed by: cddbd v1.5.2PL0 Copyright (c) Steve Scherf et al.
# Submitted via: fre:ac v1.0.31
# 
DISCID=b00c910c
DTITLE=YUKI - WAVE
DYEAR=2006
DGENRE=JPop
TTITLE0=長い夢
TTITLE1=メランコリニスタ
TTITLE2=ドラマチック
TTITLE3=裸の太陽
TTITLE4=ふがいないや
TTITLE5=バースディ
TTITLE6=ヘイ！ユー！
TTITLE7=あおぞら
TTITLE8=You've got a friend
TTITLE9=ユメミテイタイ
TTITLE10=夏のヒーロー
TTITLE11=歓びの種
EXTD=YEAR: 2006
EXTT0=
EXTT1=
EXTT2=
EXTT3=
EXTT4=
EXTT5=
EXTT6=
EXTT7=
EXTT8=
EXTT9=
EXTT10=
EXTT11=
PLAYORDER=
